<svg width="70" height="70" viewBox="0 0 70 70" fill="none" xmlns="http://www.w3.org/2000/svg">
<rect width="70" height="70" rx="20" fill="#E74C3C" fill-opacity="0.3"/>
<path d="M19 41.7778C19 49.4514 25.2284 55.6667 32.9182 55.6667C38.8857 55.6667 44.2268 52.0382 46.4363 46.5174L50.8901 35.3542C51.3251 34.2431 51.2903 32.9583 50.6292 31.9688C49.7767 30.684 48.2631 30.1285 46.8365 30.4931L45.4794 30.8924C44.6791 31.1007 43.9484 31.5 43.3569 32.0382V21.8125C43.3569 19.4167 41.4084 17.4722 39.0075 17.4722C38.6769 17.4722 38.3637 17.4722 38.068 17.5764C37.7026 15.5451 35.928 14 33.7881 14C31.944 14 30.3782 15.1458 29.7344 16.7604C29.3691 16.6563 28.9689 16.6042 28.5688 16.6042C26.1679 16.6042 24.2193 18.5486 24.2193 20.9444V21.8993C23.941 21.8125 23.6452 21.8125 23.3494 21.8125C20.9486 21.8125 19 23.7569 19 26.1528V41.7778ZM22.4796 26.1528C22.4796 25.6667 22.8623 25.2847 23.3494 25.2847C23.8366 25.2847 24.2193 25.6667 24.2193 26.1528V34.8333H27.6989V20.9444C27.6989 20.4583 28.0816 20.0764 28.5688 20.0764C29.0559 20.0764 29.4387 20.4583 29.4387 20.9444V34.8333H32.9182V18.3403C32.9182 17.8542 33.301 17.4722 33.7881 17.4722C34.2753 17.4722 34.658 17.8542 34.658 18.3403V34.8333H38.1376V21.8125C38.1376 21.3264 38.5203 20.9444 39.0075 20.9444C39.4946 20.9444 39.8773 21.3264 39.8773 21.8125V40.0417H43.3569L45.0967 35.7014C45.3577 34.9201 45.9666 34.3299 46.8365 34.1215L47.7064 33.8785L43.2003 45.25C41.5301 49.434 37.4591 52.1944 32.9182 52.1944C27.1596 52.1944 22.4796 47.5243 22.4796 41.7778V26.1528Z" fill="#E74C3C"/>
</svg>
