<svg width="70" height="70" viewBox="0 0 70 70" fill="none" xmlns="http://www.w3.org/2000/svg">
<rect width="70" height="70" rx="20" fill="#00A65A" fill-opacity="0.3"/>
<path d="M34.5714 52.0952C30.9468 52.0952 27.4706 50.6554 24.9076 48.0924C22.3446 45.5294 20.9048 42.0532 20.9048 38.4286C20.9048 34.8039 22.3446 31.3278 24.9076 28.7648C27.4706 26.2018 30.9468 24.7619 34.5714 24.7619C38.1961 24.7619 41.6722 26.2018 44.2352 28.7648C46.7982 31.3278 48.2381 34.8039 48.2381 38.4286C48.2381 42.0532 46.7982 45.5294 44.2352 48.0924C41.6722 50.6554 38.1961 52.0952 34.5714 52.0952ZM48.2967 27.4757L51.069 24.7033C50.1905 23.7076 49.3119 22.8095 48.3162 21.9505L45.5438 24.7619C42.5176 22.3019 38.7105 20.8571 34.5714 20.8571C29.9112 20.8571 25.4418 22.7084 22.1466 26.0037C18.8513 29.299 17 33.7683 17 38.4286C17 43.0888 18.8513 47.5582 22.1466 50.8534C25.4418 54.1487 29.9112 56 34.5714 56C44.3333 56 52.1429 48.1319 52.1429 38.4286C52.1429 34.2895 50.6981 30.4824 48.2967 27.4757ZM32.619 40.381H36.5238V28.6667H32.619M40.4286 15H28.7143V18.9048H40.4286V15Z" fill="#00A65A"/>
</svg>
